<?xml version="1.0" encoding="UTF-8" standalone="no"?>
<!DOCTYPE svg PUBLIC "-//W3C//DTD SVG 1.1//EN" "http://www.w3.org/Graphics/SVG/1.1/DTD/svg11.dtd">
<svg version="1.1" xmlns="http://www.w3.org/2000/svg" xmlns:xlink="http://www.w3.org/1999/xlink" preserveAspectRatio="xMidYMid meet" viewBox="-118.92821913374593 210.92019608682185 967.9449835425546 415.544464432733" width="963.94" height="411.54"><defs><path d="M360.24 223.19L366.47 223.52L372.62 223.99L378.67 224.61L384.63 225.39L390.48 226.34L396.23 227.47L401.87 228.78L407.39 230.29L412.79 232L418.07 233.92L423.22 236.06L428.24 238.43L433.12 241.03L437.87 243.87L442.47 246.97L446.92 250.33L451.22 253.95L455.36 257.85L459.34 262.04L463.15 266.52L466.8 271.3L470.27 276.39L473.57 281.79L476.68 287.53L479.6 293.59L482.34 300.01L484.88 306.77L487.22 313.89L489.36 321.38L491.29 329.24L493.01 337.49L494.52 346.13L495.8 355.17L496.86 364.62L497.69 374.48L498.29 384.78L498.65 395.5L498.78 406.67L498.65 417.14L498.29 427.24L497.69 436.98L496.86 446.36L495.8 455.38L494.52 464.06L493.01 472.4L491.29 480.4L489.36 488.07L487.22 495.41L484.88 502.44L482.34 509.14L479.6 515.54L476.68 521.64L473.57 527.43L470.27 532.93L466.8 538.15L463.15 543.08L459.34 547.74L455.36 552.12L451.22 556.23L446.92 560.09L442.47 563.69L437.87 567.04L433.12 570.14L428.24 573.01L423.22 575.64L418.07 578.04L412.79 580.22L407.39 582.18L401.87 583.93L396.23 585.48L390.48 586.82L384.63 587.96L378.67 588.91L372.62 589.68L366.47 590.27L360.24 590.68L353.91 590.93L347.51 591.01L341.11 590.93L334.81 590.71L328.6 590.33L322.5 589.78L316.5 589.06L310.61 588.17L304.83 587.09L299.17 585.83L293.63 584.37L288.2 582.7L282.91 580.83L277.74 578.74L272.71 576.43L267.81 573.89L263.06 571.11L258.44 568.1L253.98 564.83L249.66 561.32L245.5 557.54L241.5 553.5L237.65 549.18L233.98 544.58L230.47 539.7L227.13 534.52L223.96 529.05L220.98 523.27L218.18 517.17L215.56 510.76L213.13 504.03L210.9 496.96L208.86 489.56L207.02 481.81L205.38 473.71L203.95 465.26L202.73 456.44L201.73 447.25L200.94 437.68L200.37 427.74L200.03 417.4L199.92 406.67L200.03 397.16L200.37 387.93L200.94 378.96L201.73 370.27L202.73 361.85L203.95 353.69L205.38 345.8L207.02 338.18L208.86 330.81L210.9 323.71L213.13 316.86L215.56 310.27L218.18 303.93L220.98 297.85L223.96 292.02L227.13 286.44L230.47 281.11L233.98 276.02L237.65 271.18L241.5 266.58L245.5 262.22L249.66 258.1L253.98 254.22L258.44 250.58L263.06 247.17L267.81 243.99L272.71 241.04L277.74 238.32L282.91 235.83L288.2 233.57L293.63 231.52L299.17 229.7L304.83 228.11L310.61 226.73L316.5 225.56L322.5 224.62L328.6 223.88L334.81 223.36L341.11 223.05L347.51 222.94L353.91 223L360.24 223.19ZM340.63 271.06L336.42 271.5L332.31 272.12L328.32 272.9L324.42 273.87L320.63 275L316.94 276.31L313.36 277.79L309.89 279.44L306.52 281.27L303.26 283.26L300.11 285.43L297.07 287.77L294.13 290.27L291.31 292.95L288.59 295.79L285.98 298.81L283.49 301.99L281.1 305.33L278.83 308.85L276.67 312.53L274.62 316.38L272.68 320.39L270.86 324.57L269.15 328.91L267.56 333.42L266.08 338.09L264.72 342.93L263.47 347.93L262.34 353.09L261.33 358.41L260.43 363.89L259.65 369.54L258.99 375.34L258.45 381.31L258.03 387.43L257.73 393.72L257.54 400.16L257.48 406.76L257.54 414.21L257.72 421.41L258.01 428.38L258.41 435.1L258.94 441.59L259.57 447.84L260.33 453.86L261.19 459.66L262.17 465.23L263.27 470.58L264.48 475.71L265.81 480.63L267.24 485.33L268.79 489.83L270.46 494.12L272.23 498.2L274.12 502.08L276.13 505.77L278.24 509.25L280.46 512.55L282.8 515.66L285.25 518.58L287.81 521.32L290.48 523.88L293.26 526.26L296.15 528.46L299.15 530.49L302.27 532.36L305.49 534.06L308.82 535.59L312.26 536.97L315.8 538.19L319.46 539.25L323.22 540.16L327.1 540.93L331.08 541.55L335.17 542.02L339.36 542.36L343.66 542.56L348.07 542.63L352.49 542.56L356.8 542.34L361.02 541.98L365.14 541.48L369.16 540.82L373.08 540.02L376.89 539.06L380.61 537.94L384.22 536.67L387.73 535.24L391.13 533.64L394.43 531.88L397.63 529.95L400.71 527.85L403.69 525.59L406.56 523.14L409.33 520.53L411.98 517.73L414.52 514.76L416.96 511.6L419.28 508.26L421.48 504.73L423.58 501.01L425.56 497.1L427.43 493L429.18 488.7L430.82 484.2L432.34 479.51L433.74 474.61L435.02 469.51L436.19 464.2L437.24 458.68L438.16 452.95L438.97 447.01L439.65 440.85L440.21 434.48L440.64 427.89L440.96 421.07L441.15 414.03L441.21 406.76L441.15 399.01L440.97 391.54L440.67 384.33L440.24 377.39L439.7 370.71L439.04 364.3L438.26 358.13L437.37 352.22L436.35 346.55L435.22 341.13L433.98 335.94L432.61 330.98L431.13 326.26L429.54 321.76L427.83 317.49L426.01 313.43L424.07 309.58L422.03 305.95L419.86 302.52L417.59 299.29L415.21 296.26L412.71 293.42L410.1 290.77L407.39 288.31L404.56 286.02L401.63 283.92L398.58 281.98L395.43 280.22L392.17 278.62L388.8 277.18L385.33 275.89L381.75 274.76L378.06 273.78L374.27 272.94L370.38 272.24L366.38 271.68L362.27 271.25L358.07 270.95L353.76 270.77L349.35 270.71L344.93 270.8L340.63 271.06Z" id="b32oDdxX9"></path><path d="M112.95 489.35C112.95 426.59 112.95 391.72 112.95 384.75C112.95 373.18 103.57 363.8 92.01 363.8C91.17 363.8 84.51 363.8 83.68 363.8C72.11 363.8 62.73 373.18 62.73 384.75C62.73 384.75 62.73 384.75 62.73 384.75C62.73 391.72 62.73 426.59 62.73 489.35C2.62 489.35 -30.78 489.35 -37.46 489.35C-44.06 489.35 -49.41 483.99 -49.41 477.39C-49.41 475.44 -48.94 473.52 -48.03 471.8C-37.42 451.73 47.41 291.17 58.01 271.1C63.42 260.87 59.5 248.2 49.28 242.79C49 242.65 48.72 242.51 48.43 242.37C47.81 242.08 42.8 239.71 42.18 239.42C32.08 234.65 20.02 238.64 14.76 248.48C1.82 272.68 -101.64 466.23 -114.57 490.42C-116.78 494.54 -117.93 499.14 -117.93 503.81C-117.93 503.81 -117.93 503.81 -117.93 503.81C-117.93 519.5 -105.21 532.21 -89.52 532.21C-89.52 532.21 -89.52 532.21 -89.52 532.21C-79.37 532.21 -28.62 532.21 62.73 532.21C62.73 571.9 62.73 593.95 62.73 598.36C62.73 612.22 73.98 623.46 87.84 623.46C87.84 623.46 87.84 623.46 87.84 623.46C87.84 623.46 87.84 623.46 87.84 623.46C101.71 623.46 112.95 612.22 112.95 598.36C112.95 598.36 112.95 598.36 112.95 598.36C112.95 593.95 112.95 571.9 112.95 532.21C134.27 532.21 146.11 532.21 148.47 532.21C160.31 532.21 169.91 522.62 169.91 510.78C169.91 510.78 169.91 510.78 169.91 510.78C169.91 510.78 169.91 510.78 169.91 510.78C169.91 498.94 160.31 489.35 148.47 489.35C148.47 489.35 136.63 489.35 112.95 489.35Z" id="a16uQfjrd6"></path><path d="M770.69 489.35C770.69 426.59 770.69 391.72 770.69 384.75C770.69 373.18 761.31 363.8 749.74 363.8C748.91 363.8 742.25 363.8 741.42 363.8C729.85 363.8 720.47 373.18 720.47 384.75C720.47 384.75 720.47 384.75 720.47 384.75C720.47 391.72 720.47 426.59 720.47 489.35C660.36 489.35 626.96 489.35 620.28 489.35C613.68 489.35 608.32 483.99 608.32 477.39C608.32 475.44 608.8 473.52 609.71 471.8C620.31 451.73 705.14 291.17 715.75 271.1C721.15 260.87 717.24 248.2 707.01 242.79C706.74 242.65 706.45 242.51 706.17 242.37C705.55 242.08 700.54 239.71 699.91 239.42C689.82 234.65 677.76 238.64 672.49 248.48C659.56 272.68 556.1 466.23 543.16 490.42C540.96 494.54 539.81 499.14 539.81 503.81C539.81 503.81 539.81 503.81 539.81 503.81C539.81 519.5 552.53 532.21 568.21 532.21C568.21 532.21 568.21 532.21 568.21 532.21C578.36 532.21 629.12 532.21 720.47 532.21C720.47 571.9 720.47 593.95 720.47 598.36C720.47 612.22 731.71 623.46 745.58 623.46C745.58 623.46 745.58 623.46 745.58 623.46C745.58 623.46 745.58 623.46 745.58 623.46C759.45 623.46 770.69 612.22 770.69 598.36C770.69 598.36 770.69 598.36 770.69 598.36C770.69 593.95 770.69 571.9 770.69 532.21C792 532.21 803.84 532.21 806.21 532.21C818.05 532.21 827.64 522.62 827.64 510.78C827.64 510.78 827.64 510.78 827.64 510.78C827.64 510.78 827.64 510.78 827.64 510.78C827.64 498.94 818.05 489.35 806.21 489.35C806.21 489.35 794.37 489.35 770.69 489.35Z" id="a147bKgjpJ"></path><path d="M122.75 477.1C122.75 414.34 122.75 379.47 122.75 372.5C122.75 360.93 113.37 351.55 101.8 351.55C101.8 351.55 101.8 351.55 101.8 351.55C100.97 351.55 94.31 351.55 93.48 351.55C81.91 351.55 72.53 360.93 72.53 372.5C72.53 372.5 72.53 372.5 72.53 372.5C72.53 379.47 72.53 414.34 72.53 477.1C12.42 477.1 -20.98 477.1 -27.66 477.1C-34.26 477.1 -39.62 471.74 -39.62 465.14C-39.62 463.19 -39.14 461.27 -38.23 459.55C-27.63 439.48 57.21 278.92 67.81 258.85C73.21 248.62 69.3 235.95 59.07 230.54C58.8 230.4 58.52 230.26 58.23 230.12C57.61 229.83 52.6 227.46 51.97 227.17C41.88 222.4 29.82 226.39 24.56 236.23C11.62 260.43 -91.84 453.98 -104.78 478.17C-106.98 482.29 -108.13 486.89 -108.13 491.56C-108.13 491.56 -108.13 491.56 -108.13 491.56C-108.13 507.25 -95.41 519.97 -79.72 519.97C-79.72 519.97 -79.72 519.97 -79.72 519.97C-69.57 519.97 -18.82 519.97 72.53 519.97C72.53 559.65 72.53 581.7 72.53 586.11C72.53 599.97 83.78 611.22 97.64 611.22C97.64 611.22 97.64 611.22 97.64 611.22C97.64 611.22 97.64 611.22 97.64 611.22C111.51 611.22 122.75 599.97 122.75 586.11C122.75 586.11 122.75 586.11 122.75 586.11C122.75 581.7 122.75 559.65 122.75 519.97C144.06 519.97 155.9 519.97 158.27 519.97C170.11 519.97 179.71 510.37 179.71 498.53C179.71 498.53 179.71 498.53 179.71 498.53C179.71 498.53 179.71 498.53 179.71 498.53C179.71 486.69 170.11 477.1 158.27 477.1C158.27 477.1 158.27 477.1 158.27 477.1C158.27 477.1 146.43 477.1 122.75 477.1Z" id="ahw317B6"></path><path d="M789.06 477.1C789.06 414.34 789.06 379.47 789.06 372.5C789.06 360.93 779.68 351.55 768.11 351.55C768.11 351.55 768.11 351.55 768.11 351.55C767.28 351.55 760.62 351.55 759.79 351.55C748.22 351.55 738.84 360.93 738.84 372.5C738.84 372.5 738.84 372.5 738.84 372.5C738.84 379.47 738.84 414.34 738.84 477.1C678.73 477.1 645.33 477.1 638.65 477.1C632.05 477.1 626.69 471.74 626.69 465.14C626.69 463.19 627.17 461.27 628.08 459.55C638.68 439.48 723.52 278.92 734.12 258.85C739.52 248.62 735.61 235.95 725.38 230.54C725.11 230.4 724.83 230.26 724.54 230.12C723.92 229.83 718.91 227.46 718.28 227.17C708.19 222.4 696.13 226.39 690.87 236.23C677.93 260.43 574.47 453.98 561.54 478.17C559.33 482.29 558.18 486.89 558.18 491.56C558.18 491.56 558.18 491.56 558.18 491.56C558.18 507.25 570.9 519.97 586.59 519.97C586.59 519.97 586.59 519.97 586.59 519.97C596.74 519.97 647.49 519.97 738.84 519.97C738.84 559.65 738.84 581.7 738.84 586.11C738.84 599.97 750.09 611.22 763.95 611.22C763.95 611.22 763.95 611.22 763.95 611.22C763.95 611.22 763.95 611.22 763.95 611.22C777.82 611.22 789.06 599.97 789.06 586.11C789.06 581.7 789.06 559.65 789.06 519.97C810.37 519.97 822.21 519.97 824.58 519.97C836.42 519.97 846.02 510.37 846.02 498.53C846.02 498.53 846.02 498.53 846.02 498.53C846.02 498.53 846.02 498.53 846.02 498.53C846.02 486.69 836.42 477.1 824.58 477.1C824.58 477.1 812.74 477.1 789.06 477.1Z" id="b7z6mDH6LA"></path><path d="M379.83 212.17L386.07 212.49L392.22 212.96L398.27 213.59L404.23 214.37L410.08 215.32L415.83 216.45L421.46 217.76L426.99 219.27L432.39 220.98L437.67 222.9L442.82 225.04L447.84 227.4L452.72 230.01L457.47 232.85L462.07 235.95L466.52 239.3L470.81 242.93L474.96 246.83L478.94 251.01L482.75 255.49L486.4 260.27L489.87 265.36L493.16 270.77L496.28 276.5L499.2 282.57L501.94 288.98L504.48 295.74L506.82 302.86L508.96 310.35L510.89 318.22L512.61 326.46L514.11 335.1L515.4 344.14L516.46 353.59L517.29 363.46L517.89 373.75L518.25 384.48L518.37 395.65L518.25 406.12L517.89 416.22L517.29 425.95L516.46 435.33L515.4 444.36L514.11 453.04L512.61 461.38L510.89 469.38L508.96 477.04L506.82 484.39L504.48 491.41L501.94 498.12L499.2 504.52L496.28 510.61L493.16 516.41L489.87 521.91L486.4 527.13L482.75 532.06L478.94 536.71L474.96 541.09L470.81 545.21L466.52 549.07L462.07 552.67L457.47 556.02L452.72 559.12L447.84 561.99L442.82 564.62L437.67 567.02L432.39 569.2L426.99 571.16L421.46 572.91L415.83 574.45L410.08 575.79L404.23 576.94L398.27 577.89L392.22 578.66L386.07 579.25L379.83 579.66L373.51 579.9L367.11 579.98L360.71 579.91L354.41 579.69L348.2 579.3L342.1 578.76L336.1 578.04L330.21 577.15L324.43 576.07L318.77 574.8L313.22 573.34L307.8 571.68L302.51 569.8L297.34 567.71L292.31 565.4L287.41 562.86L282.65 560.09L278.04 557.07L273.57 553.81L269.26 550.29L265.1 546.52L261.09 542.47L257.25 538.16L253.57 533.56L250.06 528.67L246.72 523.5L243.56 518.02L240.58 512.24L237.77 506.15L235.16 499.74L232.73 493.01L230.49 485.94L228.46 478.53L226.62 470.79L224.98 462.69L223.55 454.23L222.33 445.41L221.33 436.23L220.54 426.66L219.97 416.71L219.63 406.38L219.51 395.65L219.63 386.14L219.97 376.9L220.54 367.94L221.33 359.25L222.33 350.83L223.55 342.67L224.98 334.78L226.62 327.15L228.46 319.79L230.49 312.68L232.73 305.84L235.16 299.24L237.77 292.91L240.58 286.83L243.56 281L246.72 275.42L250.06 270.08L253.57 265L257.25 260.15L261.09 255.55L265.1 251.2L269.26 247.08L273.57 243.2L278.04 239.55L282.65 236.14L287.41 232.96L292.31 230.02L297.34 227.3L302.51 224.81L307.8 222.54L313.22 220.5L318.77 218.68L324.43 217.08L330.21 215.7L336.1 214.54L342.1 213.59L348.2 212.86L354.41 212.34L360.71 212.02L367.11 211.92L373.51 211.98L379.83 212.17ZM360.22 260.04L356.02 260.48L351.91 261.09L347.91 261.88L344.02 262.84L340.23 263.98L336.54 265.29L332.96 266.77L329.49 268.42L326.12 270.24L322.86 272.24L319.71 274.41L316.66 276.74L313.73 279.25L310.9 281.92L308.19 284.77L305.58 287.78L303.08 290.96L300.7 294.31L298.43 297.83L296.26 301.51L294.22 305.36L292.28 309.37L290.46 313.55L288.75 317.89L287.16 322.4L285.68 327.07L284.31 331.9L283.07 336.9L281.94 342.06L280.92 347.38L280.03 352.87L279.25 358.51L278.59 364.32L278.05 370.28L277.62 376.41L277.32 382.69L277.14 389.14L277.08 395.74L277.14 403.19L277.31 410.39L277.6 417.35L278.01 424.08L278.53 430.56L279.17 436.82L279.92 442.84L280.79 448.64L281.77 454.21L282.87 459.56L284.08 464.69L285.4 469.61L286.84 474.31L288.39 478.8L290.06 483.09L291.83 487.18L293.72 491.06L295.72 494.74L297.84 498.23L300.06 501.53L302.4 504.64L304.85 507.56L307.41 510.3L310.08 512.85L312.86 515.23L315.75 517.44L318.75 519.47L321.86 521.34L325.08 523.03L328.41 524.57L331.85 525.95L335.4 527.16L339.06 528.23L342.82 529.14L346.69 529.9L350.68 530.52L354.76 531L358.96 531.34L363.26 531.54L367.67 531.6L372.09 531.53L376.4 531.32L380.62 530.96L384.74 530.45L388.76 529.8L392.68 528.99L396.49 528.04L400.21 526.92L403.82 525.65L407.33 524.21L410.73 522.62L414.03 520.85L417.22 518.93L420.31 516.83L423.29 514.56L426.16 512.12L428.92 509.5L431.58 506.71L434.12 503.73L436.55 500.57L438.87 497.23L441.08 493.7L443.18 489.98L445.16 486.08L447.03 481.97L448.78 477.68L450.42 473.18L451.94 468.48L453.34 463.59L454.62 458.48L455.79 453.18L456.83 447.66L457.76 441.93L458.56 435.99L459.25 429.83L459.81 423.46L460.24 416.86L460.56 410.05L460.74 403.01L460.81 395.74L460.75 387.99L460.56 380.51L460.26 373.31L459.84 366.37L459.3 359.69L458.64 353.27L457.86 347.11L456.97 341.2L455.95 335.53L454.82 330.1L453.57 324.91L452.21 319.96L450.73 315.24L449.14 310.74L447.43 306.46L445.61 302.41L443.67 298.56L441.62 294.92L439.46 291.49L437.19 288.27L434.8 285.23L432.31 282.4L429.7 279.75L426.98 277.28L424.16 275L421.22 272.89L418.18 270.96L415.03 269.19L411.77 267.59L408.4 266.15L404.93 264.87L401.35 263.74L397.66 262.76L393.87 261.92L389.97 261.22L385.98 260.66L381.87 260.23L377.67 259.93L373.36 259.75L368.94 259.69L364.53 259.78L360.22 260.04Z" id="b3YeyICiBL"></path><path d="M325.04 374.99C325.04 387.13 317.43 396.98 308.04 396.98C298.66 396.98 291.05 387.13 291.05 374.99C291.05 362.84 298.66 353 308.04 353C317.43 353 325.04 362.84 325.04 374.99Z" id="d4p0csi47x"></path><path d="M417.5 375.49C417.5 387.63 409.89 397.48 400.51 397.48C391.12 397.48 383.52 387.63 383.52 375.49C383.52 363.34 391.12 353.5 400.51 353.5C409.89 353.5 417.5 363.34 417.5 375.49Z" id="d2laMbrIbB"></path><path d="M356.53 458.46C339.41 458.46 325.54 450.4 325.54 440.46C325.54 431.86 335.94 424.66 349.85 422.9C352.06 422.61 354.29 422.46 356.53 422.47C360.27 422.46 364 422.86 367.65 423.67C379.27 426.26 387.51 432.81 387.51 440.46C387.51 450.4 373.64 458.46 356.53 458.46Z" id="bxvM1rp88"></path><path d="M329.04 369.99C329.04 382.14 321.43 391.98 312.04 391.98C302.66 391.98 295.05 382.14 295.05 369.99C295.05 357.85 302.66 348 312.04 348C321.43 348 329.04 357.85 329.04 369.99Z" id="d596ZAJ9G"></path><path d="M421.5 370.49C421.5 382.64 413.89 392.48 404.51 392.48C395.12 392.48 387.51 382.64 387.51 370.49C387.51 358.35 395.12 348.5 404.51 348.5C413.89 348.5 421.5 358.35 421.5 370.49Z" id="aAqsKSI8"></path><path d="M391.51 435.47C391.51 445.4 377.64 453.46 360.52 453.46C343.41 453.46 329.54 445.4 329.54 435.47C329.54 425.53 343.41 417.47 360.52 417.47C377.64 417.47 391.51 425.53 391.51 435.47Z" id="bSj0HVkRn"></path><path d="M366.7 428.56C365.88 429.45 364.73 429.96 363.52 429.97C362.52 429.97 354.53 429.97 353.53 429.97C350.96 429.88 348.95 427.73 349.03 425.17C349.02 424.19 349.31 423.24 349.85 422.43C352.06 422.12 354.29 421.96 356.53 421.97C360.27 421.96 364.01 422.39 367.65 423.25C367.9 423.86 368.02 424.51 368.02 425.17C368.03 426.43 367.56 427.64 366.7 428.56Z" id="a9Yrj5QPe"></path><path d="M312.04 359C309.28 359 307.05 361.23 307.05 363.99C307.05 366.75 309.28 368.99 312.04 368.99C314.8 368.99 317.04 366.75 317.04 363.99C317.04 361.23 314.8 359 312.04 359Z" id="cq0zpod3"></path><path d="M405.01 359C402.25 359 400.01 361.23 400.01 363.99C400.01 366.75 402.25 368.99 405.01 368.99C407.77 368.99 410 366.75 410 363.99C410 361.23 407.77 359 405.01 359Z" id="bSNobMQkW"></path><path d="M410 405.98C407.24 405.98 405.01 408.21 405.01 410.98C405.01 413.74 407.24 415.97 410 415.97C412.76 415.97 415 413.74 415 410.98C415 408.21 412.76 405.98 410 405.98Z" id="j4nddmrEWw"></path><path d="M288.05 405.98C285.29 405.98 283.05 408.21 283.05 410.98C283.05 413.74 285.29 415.97 288.05 415.97C290.81 415.97 293.05 413.74 293.05 410.98C293.05 408.21 290.81 405.98 288.05 405.98Z" id="aIVa5eJLw"></path></defs><g><g><use xlink:href="#b32oDdxX9" opacity="1" fill="#2f2e41" fill-opacity="1"></use><g><use xlink:href="#b32oDdxX9" opacity="1" fill-opacity="0" stroke="#000000" stroke-width="1" stroke-opacity="0"></use></g></g><g><use xlink:href="#a16uQfjrd6" opacity="1" fill="#2f89fc" fill-opacity="1"></use><g><use xlink:href="#a16uQfjrd6" opacity="1" fill-opacity="0" stroke="#000000" stroke-width="1" stroke-opacity="0"></use></g></g><g><use xlink:href="#a147bKgjpJ" opacity="1" fill="#2f89fc" fill-opacity="1"></use><g><use xlink:href="#a147bKgjpJ" opacity="1" fill-opacity="0" stroke="#000000" stroke-width="1" stroke-opacity="0"></use></g></g><g><use xlink:href="#ahw317B6" opacity="1" fill="#000000" fill-opacity="0"></use><g><use xlink:href="#ahw317B6" opacity="1" fill-opacity="0" stroke="#3f3d56" stroke-width="1" stroke-opacity="1"></use></g></g><g><use xlink:href="#b7z6mDH6LA" opacity="1" fill="#000000" fill-opacity="0"></use><g><use xlink:href="#b7z6mDH6LA" opacity="1" fill-opacity="0" stroke="#3f3d56" stroke-width="1" stroke-opacity="1"></use></g></g><g><use xlink:href="#b3YeyICiBL" opacity="1" fill="#000000" fill-opacity="0"></use><g><use xlink:href="#b3YeyICiBL" opacity="1" fill-opacity="0" stroke="#3f3d56" stroke-width="1" stroke-opacity="1"></use></g></g><g><use xlink:href="#d4p0csi47x" opacity="1" fill="#2f2e41" fill-opacity="1"></use><g><use xlink:href="#d4p0csi47x" opacity="1" fill-opacity="0" stroke="#000000" stroke-width="1" stroke-opacity="0"></use></g></g><g><use xlink:href="#d2laMbrIbB" opacity="1" fill="#2f2e41" fill-opacity="1"></use><g><use xlink:href="#d2laMbrIbB" opacity="1" fill-opacity="0" stroke="#000000" stroke-width="1" stroke-opacity="0"></use></g></g><g><use xlink:href="#bxvM1rp88" opacity="1" fill="#2f2e41" fill-opacity="1"></use><g><use xlink:href="#bxvM1rp88" opacity="1" fill-opacity="0" stroke="#000000" stroke-width="1" stroke-opacity="0"></use></g></g><g><use xlink:href="#d596ZAJ9G" opacity="1" fill="#000000" fill-opacity="0"></use><g><use xlink:href="#d596ZAJ9G" opacity="1" fill-opacity="0" stroke="#3f3d56" stroke-width="1" stroke-opacity="1"></use></g></g><g><use xlink:href="#aAqsKSI8" opacity="1" fill="#000000" fill-opacity="0"></use><g><use xlink:href="#aAqsKSI8" opacity="1" fill-opacity="0" stroke="#3f3d56" stroke-width="1" stroke-opacity="1"></use></g></g><g><use xlink:href="#bSj0HVkRn" opacity="1" fill="#000000" fill-opacity="0"></use><g><use xlink:href="#bSj0HVkRn" opacity="1" fill-opacity="0" stroke="#3f3d56" stroke-width="1" stroke-opacity="1"></use></g></g><g><use xlink:href="#a9Yrj5QPe" opacity="1" fill="#ffffff" fill-opacity="1"></use><g><use xlink:href="#a9Yrj5QPe" opacity="1" fill-opacity="0" stroke="#000000" stroke-width="1" stroke-opacity="0"></use></g></g><g><use xlink:href="#cq0zpod3" opacity="1" fill="#ffffff" fill-opacity="1"></use><g><use xlink:href="#cq0zpod3" opacity="1" fill-opacity="0" stroke="#000000" stroke-width="1" stroke-opacity="0"></use></g></g><g><use xlink:href="#bSNobMQkW" opacity="1" fill="#ffffff" fill-opacity="1"></use><g><use xlink:href="#bSNobMQkW" opacity="1" fill-opacity="0" stroke="#000000" stroke-width="1" stroke-opacity="0"></use></g></g><g><use xlink:href="#j4nddmrEWw" opacity="1" fill="#2f89fc" fill-opacity="1"></use><g><use xlink:href="#j4nddmrEWw" opacity="1" fill-opacity="0" stroke="#000000" stroke-width="1" stroke-opacity="0"></use></g></g><g><use xlink:href="#aIVa5eJLw" opacity="1" fill="#2f89fc" fill-opacity="1"></use><g><use xlink:href="#aIVa5eJLw" opacity="1" fill-opacity="0" stroke="#000000" stroke-width="1" stroke-opacity="0"></use></g></g></g></svg>